<svg width="44" height="44" viewBox="0 0 44 44" fill="none" xmlns="http://www.w3.org/2000/svg">
<rect width="44" height="44" rx="5" fill="#4F46E5"/>
<path d="M33.6875 15.6991H32.7642C32.4182 15.6991 31.9344 16.1739 31.9344 16.48V27.577C31.9344 27.8876 32.4182 28.3021 32.7642 28.3021H33.6875V30.9375H25.3099V28.3009H27.063V16.6375H26.9812L22.8859 30.9375H19.7174L15.6724 16.6375H15.5719V28.3009H17.325V30.9375H10.3125V28.3009H11.2124C11.5818 28.3009 12.0656 27.8876 12.0656 27.577V16.4811C12.0656 16.175 11.5818 15.6991 11.2124 15.6991H10.3125V13.0625H19.0828L21.9579 23.4099H22.0409L24.9453 13.0625H33.6875V15.6991Z" fill="white"/>
</svg>
