<svg width="143" height="44" viewBox="0 0 143 44" fill="none" xmlns="http://www.w3.org/2000/svg">
<rect width="44" height="44" rx="5" fill="#4F46E5"/>
<path d="M33.6875 15.6991H32.7642C32.4182 15.6991 31.9344 16.1739 31.9344 16.48V27.577C31.9344 27.8876 32.4182 28.3021 32.7642 28.3021H33.6875V30.9375H25.3099V28.3009H27.063V16.6375H26.9812L22.8859 30.9375H19.7174L15.6724 16.6375H15.5719V28.3009H17.325V30.9375H10.3125V28.3009H11.2124C11.5818 28.3009 12.0656 27.8876 12.0656 27.577V16.4811C12.0656 16.175 11.5818 15.6991 11.2124 15.6991H10.3125V13.0625H19.0828L21.9579 23.4099H22.0409L24.9453 13.0625H33.6875V15.6991Z" fill="white"/>
<path d="M78.045 13.248V30H74.685V19.104L70.197 30H67.653L63.141 19.104V30H59.781V13.248H63.597L68.925 25.704L74.253 13.248H78.045ZM80.5029 23.304C80.5029 21.96 80.7669 20.768 81.2949 19.728C81.8389 18.688 82.5669 17.888 83.4789 17.328C84.4069 16.768 85.4389 16.488 86.5749 16.488C87.5669 16.488 88.4309 16.688 89.1669 17.088C89.9189 17.488 90.5189 17.992 90.9669 18.6V16.704H94.3509V30H90.9669V28.056C90.5349 28.68 89.9349 29.2 89.1669 29.616C88.4149 30.016 87.5429 30.216 86.5509 30.216C85.4309 30.216 84.4069 29.928 83.4789 29.352C82.5669 28.776 81.8389 27.968 81.2949 26.928C80.7669 25.872 80.5029 24.664 80.5029 23.304ZM90.9669 23.352C90.9669 22.536 90.8069 21.84 90.4869 21.264C90.1669 20.672 89.7349 20.224 89.1909 19.92C88.6469 19.6 88.0629 19.44 87.4389 19.44C86.8149 19.44 86.2389 19.592 85.7109 19.896C85.1829 20.2 84.7509 20.648 84.4149 21.24C84.0949 21.816 83.9349 22.504 83.9349 23.304C83.9349 24.104 84.0949 24.808 84.4149 25.416C84.7509 26.008 85.1829 26.464 85.7109 26.784C86.2549 27.104 86.8309 27.264 87.4389 27.264C88.0629 27.264 88.6469 27.112 89.1909 26.808C89.7349 26.488 90.1669 26.04 90.4869 25.464C90.8069 24.872 90.9669 24.168 90.9669 23.352ZM102.721 30.216C101.633 30.216 100.657 30.024 99.7926 29.64C98.9286 29.24 98.2406 28.704 97.7286 28.032C97.2326 27.36 96.9606 26.616 96.9126 25.8H100.297C100.361 26.312 100.609 26.736 101.041 27.072C101.489 27.408 102.041 27.576 102.697 27.576C103.337 27.576 103.833 27.448 104.185 27.192C104.553 26.936 104.737 26.608 104.737 26.208C104.737 25.776 104.513 25.456 104.065 25.248C103.633 25.024 102.937 24.784 101.977 24.528C100.985 24.288 100.169 24.04 99.5286 23.784C98.9046 23.528 98.3606 23.136 97.8966 22.608C97.4486 22.08 97.2246 21.368 97.2246 20.472C97.2246 19.736 97.4326 19.064 97.8486 18.456C98.2806 17.848 98.8886 17.368 99.6726 17.016C100.473 16.664 101.409 16.488 102.481 16.488C104.065 16.488 105.329 16.888 106.273 17.688C107.217 18.472 107.737 19.536 107.833 20.88H104.617C104.569 20.352 104.345 19.936 103.945 19.632C103.561 19.312 103.041 19.152 102.385 19.152C101.777 19.152 101.305 19.264 100.969 19.488C100.649 19.712 100.489 20.024 100.489 20.424C100.489 20.872 100.713 21.216 101.161 21.456C101.609 21.68 102.305 21.912 103.249 22.152C104.209 22.392 105.001 22.64 105.625 22.896C106.249 23.152 106.785 23.552 107.233 24.096C107.697 24.624 107.937 25.328 107.953 26.208C107.953 26.976 107.737 27.664 107.305 28.272C106.889 28.88 106.281 29.36 105.481 29.712C104.697 30.048 103.777 30.216 102.721 30.216ZM114.623 19.464V25.896C114.623 26.344 114.727 26.672 114.935 26.88C115.159 27.072 115.527 27.168 116.039 27.168H117.599V30H115.487C112.655 30 111.239 28.624 111.239 25.872V19.464H109.655V16.704H111.239V13.416H114.623V16.704H117.599V19.464H114.623ZM132.375 23.064C132.375 23.544 132.343 23.976 132.279 24.36H122.559C122.639 25.32 122.975 26.072 123.567 26.616C124.159 27.16 124.887 27.432 125.751 27.432C126.999 27.432 127.887 26.896 128.415 25.824H132.039C131.655 27.104 130.919 28.16 129.831 28.992C128.743 29.808 127.407 30.216 125.823 30.216C124.543 30.216 123.391 29.936 122.367 29.376C121.359 28.8 120.567 27.992 119.991 26.952C119.431 25.912 119.151 24.712 119.151 23.352C119.151 21.976 119.431 20.768 119.991 19.728C120.551 18.688 121.335 17.888 122.343 17.328C123.351 16.768 124.511 16.488 125.823 16.488C127.087 16.488 128.215 16.76 129.207 17.304C130.215 17.848 130.991 18.624 131.535 19.632C132.095 20.624 132.375 21.768 132.375 23.064ZM128.895 22.104C128.879 21.24 128.567 20.552 127.959 20.04C127.351 19.512 126.607 19.248 125.727 19.248C124.895 19.248 124.191 19.504 123.615 20.016C123.055 20.512 122.711 21.208 122.583 22.104H128.895ZM138.188 18.768C138.62 18.064 139.18 17.512 139.868 17.112C140.572 16.712 141.372 16.512 142.268 16.512V20.04H141.38C140.324 20.04 139.524 20.288 138.98 20.784C138.452 21.28 138.188 22.144 138.188 23.376V30H134.828V16.704H138.188V18.768Z" fill="black"/>
</svg>
